<svg width="24" height="24" viewBox="0 0 24 24" fill="none" xmlns="http://www.w3.org/2000/svg">
<mask id="mask0_1349_10304" style="mask-type:alpha" maskUnits="userSpaceOnUse" x="0" y="0" width="24" height="24">
<rect width="24" height="24" fill="#D9D9D9"/>
</mask>
<g mask="url(#mask0_1349_10304)">
<path d="M9.0752 16.2502L12.0002 14.4752L14.9252 16.2502L14.1502 12.9252L16.7502 10.6752L13.3252 10.4002L12.0002 7.2502L10.6752 10.4002L7.2502 10.6752L9.8502 12.9252L9.0752 16.2502ZM12.0002 23.3002L8.6502 20.0002H4.0002V15.3502L0.700195 12.0002L4.0002 8.6502V4.0002H8.6502L12.0002 0.700195L15.3502 4.0002H20.0002V8.6502L23.3002 12.0002L20.0002 15.3502V20.0002H15.3502L12.0002 23.3002ZM12.0002 20.5002L14.5002 18.0002H18.0002V14.5002L20.5002 12.0002L18.0002 9.5002V6.0002H14.5002L12.0002 3.5002L9.5002 6.0002H6.0002V9.5002L3.5002 12.0002L6.0002 14.5002V18.0002H9.5002L12.0002 20.5002Z" fill="#FFB703"/>
</g>
</svg>
