<svg width="24" height="19" viewBox="0 0 24 19" fill="none" xmlns="http://www.w3.org/2000/svg">
<path d="M12 5.1832e-08V2H14.3008L15.2285 4.53711L13.8379 5H11C10.7348 5.00005 10.4805 5.10543 10.293 5.29297L8.58594 7H6H4H2V9H4V10.0508C1.76204 10.3045 0 12.1975 0 14.5C0 16.9734 2.02656 19 4.5 19C6.97344 19 9 16.9734 9 14.5C9 14.2723 8.96477 14.0529 8.93164 13.834L13.1953 12.9805C13.3945 12.9408 13.5768 12.8414 13.7181 12.6956C13.8594 12.5497 13.9529 12.3644 13.9863 12.1641L14.8867 6.75977L15.916 6.41602L17.4219 10.5352C15.9916 11.2913 15 12.7789 15 14.5C15 16.9734 17.0266 19 19.5 19C21.9734 19 24 16.9734 24 14.5C24 12.0266 21.9734 10 19.5 10C19.4526 10 19.4084 10.0122 19.3613 10.0137L17.8945 6H21V4H17.1621L15.9395 0.65625C15.869 0.463777 15.7411 0.297604 15.573 0.180226C15.405 0.0628483 15.205 -6.59211e-05 15 5.1832e-08H12ZM11.4141 7H12.8203L12.127 11.1543L8.19141 11.9414C7.65864 11.1768 6.89057 10.5989 6 10.2793V9H9C9.2652 8.99995 9.51952 8.89457 9.70703 8.70703L11.4141 7ZM4.5 12C5.89256 12 7 13.1074 7 14.5C7 15.8926 5.89256 17 4.5 17C3.10744 17 2 15.8926 2 14.5C2 13.1074 3.10744 12 4.5 12ZM19.5 12C20.8926 12 22 13.1074 22 14.5C22 15.8926 20.8926 17 19.5 17C18.1074 17 17 15.8926 17 14.5C17 13.1074 18.1074 12 19.5 12Z" fill="#FB8500"/>
</svg>
