<svg width="24" height="24" viewBox="0 0 24 24" fill="none" xmlns="http://www.w3.org/2000/svg">
<path d="M5.41016 2L2 2.01758L2.00977 4.01758L4.08008 4.00781L7.375 11.9121L6.17773 13.8281C5.77773 14.4681 5.75705 15.2765 6.12305 15.9355C6.48905 16.5945 7.1835 17.0039 7.9375 17.0039H19.9961V15.0039H7.9375L7.87305 14.8867L9.04883 13.0039H16.5176C17.2446 13.0039 17.9136 12.6086 18.2656 11.9746L21.8691 5.49023C22.0421 5.18023 22.0374 4.80209 21.8574 4.49609C21.6774 4.19109 21.3481 4.00391 20.9941 4.00391H6.24609L5.41016 2ZM7.07812 6.00391H19.2949L16.5176 11.0039H9.16211L7.07812 6.00391ZM7.99609 18.0039C7.46566 18.0039 6.95695 18.2146 6.58188 18.5897C6.20681 18.9648 5.99609 19.4735 5.99609 20.0039C5.99609 20.5343 6.20681 21.043 6.58188 21.4181C6.95695 21.7932 7.46566 22.0039 7.99609 22.0039C8.52653 22.0039 9.03523 21.7932 9.41031 21.4181C9.78538 21.043 9.99609 20.5343 9.99609 20.0039C9.99609 19.4735 9.78538 18.9648 9.41031 18.5897C9.03523 18.2146 8.52653 18.0039 7.99609 18.0039ZM17.9961 18.0039C17.4657 18.0039 16.957 18.2146 16.5819 18.5897C16.2068 18.9648 15.9961 19.4735 15.9961 20.0039C15.9961 20.5343 16.2068 21.043 16.5819 21.4181C16.957 21.7932 17.4657 22.0039 17.9961 22.0039C18.5265 22.0039 19.0352 21.7932 19.4103 21.4181C19.7854 21.043 19.9961 20.5343 19.9961 20.0039C19.9961 19.4735 19.7854 18.9648 19.4103 18.5897C19.0352 18.2146 18.5265 18.0039 17.9961 18.0039Z" fill="white"/>
</svg>
