<svg width="20" height="20" viewBox="0 0 20 20" fill="none" xmlns="http://www.w3.org/2000/svg">
<path d="M9.25 0C4.84356 0 1.25 3.59356 1.25 8V9V9.90234C0.676291 10.4494 0.25 11.1531 0.25 12C0.25 13.242 1.10755 14.1629 2.19336 14.6133C3.49439 17.7231 6.10024 20 9.25 20H12.25V18H9.25C6.99155 18 4.94096 16.2995 3.91016 13.6133L3.69727 13.0625L3.11133 12.9805C2.61883 12.9127 2.25 12.5151 2.25 12C2.25 11.615 2.44441 11.313 2.74805 11.1387L3.25 10.8516V10V9C3.25 8.43497 3.68497 8 4.25 8H14.25C14.815 8 15.25 8.43497 15.25 9V10V14H11.1621C11.0588 13.7079 10.8676 13.4549 10.6148 13.2759C10.3619 13.0968 10.0598 13.0004 9.75 13C9.35218 13 8.97064 13.158 8.68934 13.4393C8.40804 13.7206 8.25 14.1022 8.25 14.5C8.25051 14.8789 8.39438 15.2435 8.6527 15.5207C8.91103 15.7979 9.26467 15.967 9.64258 15.9941C9.67825 15.998 9.71411 16 9.75 16H16.25H17.25C18.35 16 19.25 15.1 19.25 14V12C19.25 10.9 18.35 10 17.25 10V9V8C17.25 3.59356 13.6564 0 9.25 0ZM9.25 2C11.9056 2 14.1406 3.70738 14.9355 6.08789C14.7142 6.03504 14.4865 6 14.25 6H4.25C4.0135 6 3.78581 6.03504 3.56445 6.08789C4.35938 3.70738 6.59441 2 9.25 2Z" fill="#FB8500"/>
</svg>
