<svg width="20" height="20" viewBox="0 0 20 20" fill="none" xmlns="http://www.w3.org/2000/svg">
<path d="M5.83333 0.625C2.96146 0.625 0.625 2.96146 0.625 5.83333V14.1667C0.625 17.0385 2.96146 19.375 5.83333 19.375H14.1667C17.0385 19.375 19.375 17.0385 19.375 14.1667V5.83333C19.375 2.96146 17.0385 0.625 14.1667 0.625H5.83333ZM5.83333 2.70833H14.1667C15.8896 2.70833 17.2917 4.11042 17.2917 5.83333V14.1667C17.2917 15.8896 15.8896 17.2917 14.1667 17.2917H5.83333C4.11042 17.2917 2.70833 15.8896 2.70833 14.1667V5.83333C2.70833 4.11042 4.11042 2.70833 5.83333 2.70833ZM15.2083 3.75C14.9321 3.75 14.6671 3.85975 14.4718 4.0551C14.2764 4.25045 14.1667 4.5154 14.1667 4.79167C14.1667 5.06793 14.2764 5.33289 14.4718 5.52824C14.6671 5.72359 14.9321 5.83333 15.2083 5.83333C15.4846 5.83333 15.7496 5.72359 15.9449 5.52824C16.1403 5.33289 16.25 5.06793 16.25 4.79167C16.25 4.5154 16.1403 4.25045 15.9449 4.0551C15.7496 3.85975 15.4846 3.75 15.2083 3.75ZM10 4.79167C7.12812 4.79167 4.79167 7.12812 4.79167 10C4.79167 12.8719 7.12812 15.2083 10 15.2083C12.8719 15.2083 15.2083 12.8719 15.2083 10C15.2083 7.12812 12.8719 4.79167 10 4.79167ZM10 6.875C11.7229 6.875 13.125 8.27708 13.125 10C13.125 11.7229 11.7229 13.125 10 13.125C8.27708 13.125 6.875 11.7229 6.875 10C6.875 8.27708 8.27708 6.875 10 6.875Z" fill="white"/>
</svg>
