<svg width="201" height="66" viewBox="0 0 201 66" fill="none" xmlns="http://www.w3.org/2000/svg">
<path d="M187.976 52.56C184.034 52.56 181.017 51.4407 178.924 49.202C176.831 46.9633 175.785 43.8 175.785 39.712V12.848C175.785 8.76 176.831 5.59667 178.924 3.358C181.017 1.11933 184.034 0 187.976 0C191.918 0 194.935 1.11933 197.028 3.358C199.121 5.59667 200.167 8.76 200.167 12.848V39.712C200.167 43.8 199.121 46.9633 197.028 49.202C194.935 51.4407 191.918 52.56 187.976 52.56ZM187.976 45.26C190.75 45.26 192.137 43.581 192.137 40.223V12.337C192.137 8.979 190.75 7.3 187.976 7.3C185.202 7.3 183.815 8.979 183.815 12.337V40.223C183.815 43.581 185.202 45.26 187.976 45.26Z" fill="white"/>
<path d="M146.927 0.72998H158.826C162.962 0.72998 165.98 1.70331 167.878 3.64998C169.776 5.54798 170.725 8.49232 170.725 12.483V15.622C170.725 20.9266 168.973 24.2846 165.469 25.696V25.842C167.415 26.426 168.778 27.6183 169.557 29.419C170.384 31.2197 170.798 33.6287 170.798 36.646V45.625C170.798 47.085 170.846 48.2773 170.944 49.202C171.041 50.078 171.284 50.954 171.674 51.83H163.498C163.206 51.0027 163.011 50.224 162.914 49.494C162.816 48.764 162.768 47.45 162.768 45.552V36.208C162.768 33.872 162.378 32.2416 161.6 31.317C160.87 30.3923 159.58 29.93 157.731 29.93H154.957V51.83H146.927V0.72998ZM157.877 22.63C159.483 22.63 160.675 22.2163 161.454 21.389C162.281 20.5616 162.695 19.1746 162.695 17.228V13.286C162.695 11.4366 162.354 10.0983 161.673 9.27098C161.04 8.44365 160.018 8.02998 158.607 8.02998H154.957V22.63H157.877Z" fill="white"/>
<path d="M129.236 52.56C125.342 52.56 122.374 51.465 120.33 49.275C118.286 47.0363 117.264 43.8486 117.264 39.712V0.72998H125.294V40.296C125.294 42.048 125.634 43.3133 126.316 44.092C127.046 44.8707 128.068 45.26 129.382 45.26C130.696 45.26 131.693 44.8707 132.375 44.092C133.105 43.3133 133.47 42.048 133.47 40.296V0.72998H141.208V39.712C141.208 43.8486 140.186 47.0363 138.142 49.275C136.098 51.465 133.129 52.56 129.236 52.56Z" fill="white"/>
<path d="M87.8994 0.72998H100.163C104.154 0.72998 107.147 1.80065 109.142 3.94198C111.138 6.08332 112.135 9.22231 112.135 13.359V39.201C112.135 43.3377 111.138 46.4767 109.142 48.618C107.147 50.7593 104.154 51.83 100.163 51.83H87.8994V0.72998ZM100.017 44.53C101.331 44.53 102.329 44.1407 103.01 43.362C103.74 42.5833 104.105 41.318 104.105 39.566V12.994C104.105 11.242 103.74 9.97665 103.01 9.19798C102.329 8.41932 101.331 8.02998 100.017 8.02998H95.9294V44.53H100.017Z" fill="white"/>
<path d="M56.7461 0.72998H66.8201L74.6311 31.317H74.7771V0.72998H81.9311V51.83H73.6821L64.0461 14.527H63.9001V51.83H56.7461V0.72998Z" fill="white"/>
<path d="M30.2266 0.72998H52.1266V8.02998H38.2566V21.535H49.2796V28.835H38.2566V44.53H52.1266V51.83H30.2266V0.72998Z" fill="white"/>
<path d="M0 0.72998H8.03V22.265L18.25 0.72998H26.28L16.717 19.491L26.426 51.83H18.031L11.242 29.054L8.03 35.551V51.83H0V0.72998Z" fill="#FB8500"/>
<rect x="0.00683594" y="59" width="200" height="7" fill="#FB8500"/>
</svg>
