<svg width="110" height="37" viewBox="0 0 110 37" fill="none" xmlns="http://www.w3.org/2000/svg">
<g clip-path="url(#clip0_130_1141)">
<rect x="0.00378418" y="32.5" width="110" height="4" fill="#FB8500"/>
<path d="M102.532 29.1691C100.382 29.1691 98.7365 28.5585 97.595 27.3375C96.4535 26.1164 95.8828 24.3909 95.8828 22.1611V7.508C95.8828 5.27818 96.4535 3.55273 97.595 2.33164C98.7365 1.11055 100.382 0.5 102.532 0.5C104.683 0.5 106.328 1.11055 107.47 2.33164C108.611 3.55273 109.182 5.27818 109.182 7.508V22.1611C109.182 24.3909 108.611 26.1164 107.47 27.3375C106.328 28.5585 104.683 29.1691 102.532 29.1691ZM102.532 25.1873C104.046 25.1873 104.802 24.2715 104.802 22.4398V7.22927C104.802 5.39764 104.046 4.48182 102.532 4.48182C101.019 4.48182 100.263 5.39764 100.263 7.22927V22.4398C100.263 24.2715 101.019 25.1873 102.532 25.1873Z" fill="#023047"/>
<path d="M80.1418 0.898193H86.6322C88.8886 0.898193 90.5344 1.4291 91.5697 2.49092C92.6049 3.52619 93.1226 5.13219 93.1226 7.30892V9.0211C93.1226 11.9146 92.1669 13.7462 90.2557 14.516V14.5956C91.3175 14.9142 92.0608 15.5646 92.4855 16.5467C92.9368 17.5289 93.1624 18.8429 93.1624 20.4887V25.3864C93.1624 26.1827 93.1889 26.8331 93.242 27.3375C93.2951 27.8153 93.4278 28.2931 93.6402 28.7709H89.1806C89.0213 28.3197 88.9151 27.8949 88.862 27.4967C88.8089 27.0986 88.7824 26.3818 88.7824 25.3466V20.2498C88.7824 18.9757 88.57 18.0864 88.1453 17.582C87.7471 17.0777 87.0437 16.8255 86.0349 16.8255H84.5218V28.7709H80.1418V0.898193ZM86.1146 12.8436C86.9906 12.8436 87.6409 12.618 88.0657 12.1667C88.5169 11.7155 88.7426 10.9589 88.7426 9.8971V7.74692C88.7426 6.73819 88.5568 6.00819 88.1851 5.55692C87.84 5.10565 87.2826 4.88001 86.5128 4.88001H84.5218V12.8436H86.1146Z" fill="#023047"/>
<path d="M70.4922 29.1691C68.3686 29.1691 66.7493 28.5718 65.6344 27.3773C64.5195 26.1562 63.962 24.4175 63.962 22.1611V0.898193H68.342V22.4796C68.342 23.4353 68.5279 24.1255 68.8995 24.5502C69.2977 24.9749 69.8551 25.1873 70.5719 25.1873C71.2886 25.1873 71.8328 24.9749 72.2044 24.5502C72.6026 24.1255 72.8017 23.4353 72.8017 22.4796V0.898193H77.0224V22.1611C77.0224 24.4175 76.4649 26.1562 75.35 27.3773C74.2351 28.5718 72.6159 29.1691 70.4922 29.1691Z" fill="#023047"/>
<path d="M47.9452 0.898193H54.6346C56.8114 0.898193 58.4439 1.48219 59.5323 2.6502C60.6206 3.81819 61.1648 5.53038 61.1648 7.78674V21.8824C61.1648 24.1387 60.6206 25.8509 59.5323 27.0189C58.4439 28.1869 56.8114 28.7709 54.6346 28.7709H47.9452V0.898193ZM54.555 24.7891C55.2717 24.7891 55.8159 24.5767 56.1876 24.152C56.5857 23.7273 56.7848 23.0371 56.7848 22.0815V7.58765C56.7848 6.63201 56.5857 5.94183 56.1876 5.5171C55.8159 5.09238 55.2717 4.88001 54.555 4.88001H52.3252V24.7891H54.555Z" fill="#023047"/>
<path d="M30.9525 0.898193H36.4474L40.708 17.582H40.7876V0.898193H44.6898V28.7709H40.1903L34.9343 8.42383H34.8547V28.7709H30.9525V0.898193Z" fill="#023047"/>
<path d="M16.4872 0.898193H28.4326V4.88001H20.8672V12.2464H26.8797V16.2282H20.8672V24.7891H28.4326V28.7709H16.4872V0.898193Z" fill="#023047"/>
<path d="M0 0.898193H4.38V12.6446L9.95455 0.898193H14.3345L9.11836 11.1315L14.4142 28.7709H9.83509L6.132 16.3477L4.38 19.8915V28.7709H0V0.898193Z" fill="#FB8500"/>
</g>
<defs>
<clipPath id="clip0_130_1141">
<rect width="110" height="36" fill="white" transform="translate(0 0.5)"/>
</clipPath>
</defs>
</svg>
