<svg width="36" height="31" viewBox="0 0 36 31" fill="none" xmlns="http://www.w3.org/2000/svg">
<path d="M23.4444 30.6666L16.611 23.8333L18.5833 21.8611L23.4444 26.7222L33.361 16.8055L35.3333 18.7778L23.4444 30.6666ZM16.9444 12.1388L30.6666 3.44438H3.22213L16.9444 12.1388ZM16.9444 14.9166L3.111 6.11104V24.2222H13.0833L15.861 27H3.111C2.361 27 1.71054 26.7245 1.15963 26.1736C0.60871 25.6226 0.333252 24.9722 0.333252 24.2222V3.44438C0.333252 2.69438 0.60871 2.04392 1.15963 1.493C1.71054 0.942085 2.361 0.666626 3.111 0.666626H30.8055C31.5555 0.666626 32.2059 0.942085 32.7569 1.493C33.3078 2.04392 33.5833 2.69438 33.5833 3.44438V12.6389L30.8055 15.4167V6.11104L16.9444 14.9166Z" fill="#FB8500"/>
</svg>
