<svg width="25" height="29" viewBox="0 0 25 29" fill="none" xmlns="http://www.w3.org/2000/svg">
<path d="M13 6.5V8.5H15.3008L16.2285 11.0371L14.8379 11.5H12C11.7348 11.5001 11.4805 11.6054 11.293 11.793L9.58594 13.5H7H5H3V15.5H5V16.5508C2.76204 16.8045 1 18.6975 1 21C1 23.4734 3.02656 25.5 5.5 25.5C7.97344 25.5 10 23.4734 10 21C10 20.7723 9.96477 20.5529 9.93164 20.334L14.1953 19.4805C14.3945 19.4408 14.5768 19.3414 14.7181 19.1956C14.8594 19.0497 14.9529 18.8644 14.9863 18.6641L15.8867 13.2598L16.916 12.916L18.4219 17.0352C16.9916 17.7913 16 19.2789 16 21C16 23.4734 18.0266 25.5 20.5 25.5C22.9734 25.5 25 23.4734 25 21C25 18.5266 22.9734 16.5 20.5 16.5C20.4526 16.5 20.4084 16.5122 20.3613 16.5137L18.8945 12.5H22V10.5H18.1621L16.9395 7.15625C16.869 6.96378 16.7411 6.7976 16.573 6.68023C16.405 6.56285 16.205 6.49993 16 6.5H13ZM12.4141 13.5H13.8203L13.127 17.6543L9.19141 18.4414C8.65864 17.6768 7.89057 17.0989 7 16.7793V15.5H10C10.2652 15.4999 10.5195 15.3946 10.707 15.207L12.4141 13.5ZM5.5 18.5C6.89256 18.5 8 19.6074 8 21C8 22.3926 6.89256 23.5 5.5 23.5C4.10744 23.5 3 22.3926 3 21C3 19.6074 4.10744 18.5 5.5 18.5ZM20.5 18.5C21.8926 18.5 23 19.6074 23 21C23 22.3926 21.8926 23.5 20.5 23.5C19.1074 23.5 18 22.3926 18 21C18 19.6074 19.1074 18.5 20.5 18.5Z" fill="#023047"/>
<circle cx="6" cy="6.5" r="5" fill="white"/>
<path fill-rule="evenodd" clip-rule="evenodd" d="M6 11.5C8.76142 11.5 11 9.26142 11 6.5C11 3.73858 8.76142 1.5 6 1.5C3.23858 1.5 1 3.73858 1 6.5C1 9.26142 3.23858 11.5 6 11.5ZM7 3.5V5.5H9V7.5H7V9.5H5L5 7.5H3V5.5H5V3.5H7Z" fill="#FB8500"/>
</svg>
