<svg width="24" height="24" viewBox="0 0 24 24" fill="none" xmlns="http://www.w3.org/2000/svg">
<path d="M12 2V4H14.3008L15.2285 6.53711L13.8379 7H11C10.7348 7.00005 10.4805 7.10543 10.293 7.29297L8.58594 9H6H4H2V11H4V12.0508C1.76204 12.3045 0 14.1975 0 16.5C0 18.9734 2.02656 21 4.5 21C6.97344 21 9 18.9734 9 16.5C9 16.2723 8.96477 16.0529 8.93164 15.834L13.1953 14.9805C13.3945 14.9408 13.5768 14.8414 13.7181 14.6956C13.8594 14.5497 13.9529 14.3644 13.9863 14.1641L14.8867 8.75977L15.916 8.41602L17.4219 12.5352C15.9916 13.2913 15 14.7789 15 16.5C15 18.9734 17.0266 21 19.5 21C21.9734 21 24 18.9734 24 16.5C24 14.0266 21.9734 12 19.5 12C19.4526 12 19.4084 12.0122 19.3613 12.0137L17.8945 8H21V6H17.1621L15.9395 2.65625C15.869 2.46378 15.7411 2.2976 15.573 2.18023C15.405 2.06285 15.205 1.99993 15 2H12ZM11.4141 9H12.8203L12.127 13.1543L8.19141 13.9414C7.65864 13.1768 6.89057 12.5989 6 12.2793V11H9C9.2652 10.9999 9.51952 10.8946 9.70703 10.707L11.4141 9ZM4.5 14C5.89256 14 7 15.1074 7 16.5C7 17.8926 5.89256 19 4.5 19C3.10744 19 2 17.8926 2 16.5C2 15.1074 3.10744 14 4.5 14ZM19.5 14C20.8926 14 22 15.1074 22 16.5C22 17.8926 20.8926 19 19.5 19C18.1074 19 17 17.8926 17 16.5C17 15.1074 18.1074 14 19.5 14Z" fill="#2E3538"/>
</svg>
