<svg width="24" height="19" viewBox="0 0 24 19" fill="none" xmlns="http://www.w3.org/2000/svg">
<path d="M5.02246 0C4.07046 0 3.2959 0.759406 3.2959 1.69141V6.20312C2.83507 6.42475 2.4127 6.71929 2.04199 7.07422L0.895508 8H0.249023V10H1.24902C1.47796 9.99995 1.69996 9.92136 1.87793 9.77734L3.29785 8.62891C3.32577 8.60691 3.35251 8.58344 3.37793 8.55859C3.68949 8.24704 4.08039 8.00453 4.49902 7.86523C4.5161 7.85983 4.53304 7.85397 4.5498 7.84766L8.63965 6.23828C9.20637 6.0503 9.68888 6.25594 9.94238 6.73047L9.96973 6.78516C10.2049 7.28848 10.0644 7.80111 9.59668 8.11328C9.58945 8.11839 9.58229 8.1236 9.5752 8.12891L6.68652 10.166C6.51325 10.2887 6.3835 10.4633 6.31605 10.6645C6.24859 10.8658 6.24694 11.0834 6.31132 11.2856C6.37571 11.4879 6.50279 11.6645 6.67417 11.7897C6.84556 11.915 7.05236 11.9825 7.26465 11.9824H10.2646H14.9873L14.6729 13.248C14.5711 13.3276 14.3817 13.4671 13.9756 13.7188C13.1057 14.2578 11.3671 15.2473 8.10254 16.9824H3.2666C3.29353 16.9824 2.87549 16.8527 2.71582 16.7461C2.71517 16.7461 2.71452 16.7461 2.71387 16.7461C2.37894 16.5228 1.77441 16.1504 1.77441 16.1504C1.61664 16.0525 1.43472 16.0004 1.24902 16H0.249023V18H0.959961C1.15272 18.1203 1.41493 18.2838 1.60449 18.4102C2.00482 18.6775 2.50367 18.9824 3.2666 18.9824H8.35449C8.51863 18.9826 8.68029 18.9423 8.8252 18.8652L8.9873 18.7773C12.328 17.0029 14.0732 16.0118 15.0283 15.4199C15.5059 15.124 15.7853 14.9292 15.9893 14.7637C16.1932 14.5982 16.3767 14.3649 16.4053 14.3223C16.4702 14.2258 16.5178 14.1187 16.5459 14.0059L17.0537 11.9531H21.5225C22.4745 11.9531 23.251 11.1957 23.251 10.2637V1.69141C23.25 0.759406 22.4755 0 21.5225 0H5.02246ZM7.43066 1.95312H19.1104C19.0249 2.18008 18.9957 2.42439 19.0254 2.66508C19.0551 2.90577 19.1428 3.13566 19.2809 3.33502C19.419 3.53439 19.6034 3.69727 19.8183 3.80969C20.0332 3.92211 20.2721 3.98071 20.5146 3.98047C20.7906 3.97957 21.0609 3.90253 21.2959 3.75781V8.19531C21.0607 8.05128 20.7904 7.97492 20.5146 7.97461C20.2725 7.9748 20.0341 8.03364 19.8197 8.14608C19.6052 8.25853 19.4212 8.42124 19.2834 8.6203C19.1456 8.81936 19.058 9.04884 19.0282 9.28911C18.9984 9.52939 19.0273 9.7733 19.1123 10H16.4424C16.3838 9.98885 16.3243 9.98297 16.2646 9.98242H10.415L10.7061 9.77734C11.9583 8.94152 12.4151 7.29618 11.7803 5.9375C11.7771 5.93095 11.7738 5.92444 11.7705 5.91797L11.7217 5.81641C11.7173 5.80722 11.7127 5.79811 11.708 5.78906C11.0102 4.48279 9.43239 3.86227 8.00098 4.3418C7.98455 4.34723 7.96827 4.35309 7.95215 4.35938L5.24902 5.42383V3.75977C5.48418 3.90379 5.75451 3.98016 6.03027 3.98047C6.27246 3.98008 6.51095 3.92101 6.72532 3.80833C6.9397 3.69564 7.12358 3.53269 7.26123 3.33342C7.39887 3.13415 7.48619 2.90449 7.51569 2.66411C7.5452 2.42373 7.51603 2.17977 7.43066 1.95312ZM13.2646 2.98242C12.8396 2.98242 12.4373 3.07342 12.0713 3.23242C12.6333 3.65842 13.1217 4.19166 13.4717 4.84766L13.5557 5.01367C14.0107 5.98367 14.1498 7.01142 14.0088 7.98242H15.4854C15.9644 7.45042 16.2646 6.75442 16.2646 5.98242C16.2646 4.32542 14.9216 2.98242 13.2646 2.98242Z" fill="#FB8500"/>
</svg>
