<svg width="21" height="20" viewBox="0 0 21 20" fill="none" xmlns="http://www.w3.org/2000/svg">
<path d="M12.25 0V7L15.373 3.87695C17.1236 5.34279 18.25 7.53062 18.25 10V11H20.25V10C20.25 6.98986 18.9017 4.29621 16.7891 2.46094L19.25 0H12.25ZM6.11523 0.839844L4.38477 1.83984L5.38477 3.57227L7.11523 2.57227L6.11523 0.839844ZM2.08984 4.13477L1.08984 5.86523L2.82227 6.86523L3.82227 5.13477L2.08984 4.13477ZM0.25 9V10C0.25 13.0101 1.59834 15.7038 3.71094 17.5391L1.25 20H8.25V13L5.12695 16.123C3.37637 14.6572 2.25 12.4694 2.25 10V9H0.25ZM17.6777 13.1328L16.6777 14.8652L18.4102 15.8652L19.4102 14.1328L17.6777 13.1328ZM15.1152 16.4277L13.3848 17.4277L14.3848 19.1602L16.1152 18.1602L15.1152 16.4277Z" fill="#FB8500"/>
</svg>
