<svg width="16" height="16" viewBox="0 0 16 16" fill="none" xmlns="http://www.w3.org/2000/svg">
<g clip-path="url(#clip0_397_16058)">
<path d="M6.84199 0C10.6145 0 13.684 3.06949 13.684 6.84199C13.6836 8.36043 13.1751 9.83508 12.2395 11.031L15.9991 14.7907L14.7898 16L11.0301 12.2403C9.83434 13.1755 8.36004 13.6837 6.84199 13.684C3.06949 13.684 0 10.6145 0 6.84199C0 3.06949 3.06949 0 6.84199 0ZM6.84199 1.7105C4.01197 1.7105 1.7105 4.01197 1.7105 6.84199C1.7105 9.67201 4.01197 11.9735 6.84199 11.9735C9.67201 11.9735 11.9735 9.67201 11.9735 6.84199C11.9735 4.01197 9.67201 1.7105 6.84199 1.7105ZM4 4.85866C5.32991 3.71378 7.63727 3.71378 8.96806 4.85866C9.29579 5.13914 9.55572 5.4728 9.73285 5.84035C9.90997 6.20789 10.0008 6.60204 10 7H8.24201C8.24201 6.59717 8.0583 6.21706 7.72517 5.92933C7.06065 5.35841 5.90917 5.35689 5.24114 5.93084L4 4.85866Z" fill="#FB8500"/>
</g>
<defs>
<clipPath id="clip0_397_16058">
<rect width="16" height="16" fill="white"/>
</clipPath>
</defs>
</svg>
