<svg class="logo" xml:space="preserve" enable-background="new 0 0 130.792 100" viewBox="0 0 130.792 100" height="100px" width="450px" y="0px" x="0px" version="1.1" xmlns:xlink="http://www.w3.org/1999/xlink" xmlns="http://www.w3.org/2000/svg">
				<path d="M37.225,42.639c-1.579-3.69-2.456-7.75-2.456-12.012C34.769,13.739,48.508,0,65.396,0  c16.889,0,30.628,13.739,30.628,30.627c0,4.262-0.877,8.322-2.457,12.012c-1.628-1.331-3.504-2.37-5.546-3.04  c1.105-2.778,1.72-5.804,1.72-8.972c0-13.423-10.921-24.345-24.345-24.345S41.051,17.204,41.051,30.627  c0,3.168,0.615,6.193,1.721,8.972C40.73,40.269,38.854,41.307,37.225,42.639 M88.018,72.427c-0.785,0.347-3.815,1.194-7.146,0.746  l11.85,16.955L99.618,100c2.843-1.995,3.533-5.914,1.548-8.749C85.969,69.49,89.086,73.951,88.018,72.427 M97.314,65.129  L97.314,65.129z M119.797,78.008v6.283c2.6,0,4.712,2.112,4.712,4.712c0,2.591-2.112,4.711-4.712,4.711  c-1.57,0-2.952-0.776-3.816-1.955c-0.115-0.152-18.554-26.468-18.667-26.63l-0.001,0.001c-0.394,0.785-2.097,3.025-4.245,4.649  c-0.039,0.03-0.073,0.063-0.112,0.093c0.029,0.044,17.79,25.429,17.843,25.429c1.994,2.835,5.276,4.696,8.999,4.696  c0.597,0,1.186-0.047,1.76-0.141c5.23-0.849,9.235-5.396,9.235-10.854C130.792,82.94,125.86,78.008,119.797,78.008 M42.774,72.427  c-1.068,1.524,2.05-2.937-13.146,18.824c-1.987,2.835-1.296,6.754,1.547,8.749l6.895-9.872l11.85-16.955  C46.591,73.621,43.559,72.773,42.774,72.427 M33.479,65.129L33.479,65.129L33.479,65.129z M37.724,69.779  c-2.147-1.624-3.851-3.864-4.245-4.649l-0.001-0.001c-0.112,0.162-18.552,26.478-18.666,26.63c-0.864,1.179-2.247,1.955-3.817,1.955  c-2.599,0-4.712-2.12-4.712-4.711c0-2.6,2.113-4.712,4.712-4.712v-6.283C4.932,78.008,0,82.94,0,89.003  c0,5.458,4.005,10.005,9.236,10.854c0.573,0.094,1.162,0.141,1.759,0.141c3.722,0,7.005-1.861,9-4.696  c0.053,0,17.812-25.385,17.842-25.429C37.798,69.843,37.763,69.81,37.724,69.779 M86.222,91.245c1.99,2.842,1.299,6.759-1.543,8.749  L57.692,61.448c-1.895,3.316-5.46,5.563-9.546,5.563c-6.063,0-10.995-4.932-10.995-10.995c0-6.062,4.932-10.994,10.995-10.994  c3.719,0,7.006,1.86,8.997,4.695c0.005-0.004,3.597,5.123,8.253,11.773c4.657-6.651,8.249-11.777,8.254-11.773  c1.99-2.835,5.278-4.695,8.997-4.695c6.063,0,10.994,4.932,10.994,10.994c0,6.063-4.932,10.995-10.994,10.995  c-4.087,0-7.651-2.246-9.547-5.563l-3.867,5.521C77.22,78.38,86.222,91.245,86.222,91.245 M77.935,56.016  c0,2.599,2.113,4.713,4.712,4.713s4.712-2.114,4.712-4.713c0-2.598-2.113-4.712-4.712-4.712S77.935,53.418,77.935,56.016   M52.857,56.016c0-2.598-2.113-4.712-4.711-4.712c-2.599,0-4.712,2.114-4.712,4.712c0,2.599,2.113,4.713,4.712,4.713  C50.744,60.729,52.857,58.614,52.857,56.016 M44.57,91.245c-1.99,2.842-1.299,6.759,1.543,8.749l17.246-24.633l-3.837-5.481  C52.118,80.458,44.57,91.245,44.57,91.245" fill="#EF6C00"></path>
			</svg>