<svg width="23" height="21" viewBox="0 0 23 21" fill="none" xmlns="http://www.w3.org/2000/svg">
<path d="M11.25 4.519L12.868 7.798L13.333 8.741L14.374 8.892L17.992 9.418L15.374 11.97L14.621 12.704L14.799 13.74L15.417 17.344L12.181 15.643L11.25 15.153L10.319 15.642L7.08296 17.343L7.70096 13.739L7.87896 12.703L7.12596 11.97L4.50796 9.418L8.12596 8.892L9.16696 8.741L9.63196 7.798L11.25 4.519ZM11.25 0L7.83796 6.913L0.209961 8.021L5.72996 13.402L4.42696 21L11.25 17.413L18.073 21L16.77 13.402L22.29 8.021L14.661 6.912L11.25 0Z" fill="#FB8500"/>
</svg>
