<svg width="16" height="16" viewBox="0 0 16 16" fill="none" xmlns="http://www.w3.org/2000/svg">
<path opacity="0.4" d="M3.99688 12.9453L3.5 4.25H12.5L12.0031 12.9453C11.9852 13.2309 11.8592 13.499 11.6506 13.6949C11.442 13.8909 11.1666 14 10.8805 14H5.11953C4.83336 14 4.55796 13.8909 4.34939 13.6949C4.14082 13.499 4.01476 13.2309 3.99688 12.9453Z" fill="#9B9C9E"/>
<path d="M2.75 3.875V3.125C2.75 3.02555 2.78951 2.93017 2.85984 2.85984C2.93016 2.78952 3.02554 2.75001 3.125 2.75001H5.9375L6.15781 2.31173C6.20369 2.2179 6.27508 2.1389 6.36378 2.08377C6.45249 2.02863 6.55493 1.99961 6.65938 2H9.33828C9.44296 1.99993 9.54558 2.02907 9.63461 2.08414C9.72363 2.13921 9.79552 2.21803 9.84219 2.31173L10.0625 2.75001H12.875C12.9745 2.75001 13.0698 2.78952 13.1402 2.85984C13.2105 2.93017 13.25 3.02555 13.25 3.125V3.875C13.25 3.97446 13.2105 4.06984 13.1402 4.14017C13.0698 4.2105 12.9745 4.25 12.875 4.25H3.125C3.02554 4.25 2.93016 4.2105 2.85984 4.14017C2.78951 4.06984 2.75 3.97446 2.75 3.875Z" fill="#868788"/>
</svg>
